<?xml version="1.0" encoding="UTF-8"?>
<svg version="1.1" xmlns="http://www.w3.org/2000/svg" width="512" height="512">
<path d="M0 0 C3.125 0.375 3.125 0.375 6 1 C6.40726318 2.14251221 6.81452637 3.28502441 7.23413086 4.4621582 C8.78437648 8.80279414 10.34760753 13.13866727 11.91430664 17.47338867 C12.58373423 19.33088652 13.2498842 21.18956969 13.91235352 23.04956055 C21.80278624 45.18710718 30.78625234 64.88697234 46 83 C46.62519531 83.76054687 47.25039062 84.52109375 47.89453125 85.3046875 C53.00581438 91.32163586 58.7528439 96.19449531 65 101 C65.8765625 101.680625 66.753125 102.36125 67.65625 103.0625 C81.63702159 113.58919861 96.22131354 119.70441321 112.54589844 125.72558594 C117.13195031 127.4176407 121.70771758 129.13662721 126.28369141 130.85571289 C128.39172791 131.64666662 130.50074568 132.43501113 132.61083984 133.22045898 C134.02550537 133.74748413 134.02550537 133.74748413 135.46875 134.28515625 C136.29826172 134.59332275 137.12777344 134.90148926 137.98242188 135.21899414 C140 136 140 136 142 137 C142 138.98 142 140.96 142 143 C134.0629655 146.3001354 126.06354321 149.35458922 117.97077942 152.25247192 C95.94278401 160.14796798 75.32205639 168.73582249 58.0625 185.05859375 C56 187 56 187 52.9375 189.375 C34.45367167 205.89246361 23.72517264 229.68097401 15.625 252.5625 C15.01809688 254.24846843 14.41002692 255.93401729 13.80078125 257.61914062 C12.68760346 260.70133703 11.58167399 263.78592995 10.48291016 266.87329102 C10.23688049 267.55215363 9.99085083 268.23101624 9.73736572 268.93045044 C9.22422577 270.37067004 8.73202504 271.81845074 8.25628662 273.27145386 C7.59563948 275.21450353 6.80653123 277.11283173 6 279 C2.8125 280 2.8125 280 0 280 C-2.88780335 275.65962289 -4.49995279 271.16974828 -6.1875 266.28125 C-6.80348299 264.5357936 -7.42046399 262.79068914 -8.03833008 261.04589844 C-8.51829941 259.68555481 -8.51829941 259.68555481 -9.00796509 258.29772949 C-16.50100433 237.16591586 -24.17434664 217.1804573 -39 200 C-39.78503906 199.08863281 -40.57007813 198.17726563 -41.37890625 197.23828125 C-43.54620452 194.78494362 -45.75883021 192.38576139 -48 190 C-48.52464844 189.41089844 -49.04929687 188.82179688 -49.58984375 188.21484375 C-66.06262191 170.48460161 -89.47479428 160.77310215 -111.81082153 152.95385742 C-114.56635988 151.98818258 -117.31760216 151.01050005 -120.0692749 150.03387451 C-122.09866524 149.32174113 -124.13488913 148.63244795 -126.17236328 147.94384766 C-127.43034049 147.50125518 -128.68800534 147.0577736 -129.9453125 146.61328125 C-131.06437988 146.22954346 -132.18344727 145.84580566 -133.33642578 145.45043945 C-136 144 -136 144 -137.37841797 141.33666992 C-137.58354004 140.56556885 -137.78866211 139.79446777 -138 139 C-134.51656545 134.75849745 -130.71123653 133.51171959 -125.67578125 131.828125 C-124.44627998 131.39895782 -124.44627998 131.39895782 -123.19194031 130.96112061 C-120.56911692 130.04641664 -117.94152364 129.14671375 -115.3125 128.25 C-105.27680314 124.81795646 -95.33484825 121.36443171 -85.72265625 116.85546875 C-84.72302605 116.387388 -84.72302605 116.387388 -83.70320129 115.90985107 C-41.7428455 95.62999132 -22.02757787 58.67839359 -7.30566406 16.75683594 C-6.80073174 15.32427711 -6.80073174 15.32427711 -6.28559875 13.86277771 C-5.64636384 12.04339069 -5.01266113 10.22204812 -4.38517761 8.39857483 C-4.10007828 7.58488937 -3.81497894 6.77120392 -3.52124023 5.93286133 C-3.15131203 4.8620507 -3.15131203 4.8620507 -2.77391052 3.76960754 C-2 2 -2 2 0 0 Z " fill="#AAF1E1" transform="translate(207,116)"/>
<path d="M0 0 C1.93041992 0.12963867 1.93041992 0.12963867 4 1 C5.16918945 3.1262207 5.16918945 3.1262207 6.11328125 5.92578125 C6.64888672 7.45404541 6.64888672 7.45404541 7.1953125 9.01318359 C7.56398438 10.10195801 7.93265625 11.19073242 8.3125 12.3125 C13.21093972 26.00604809 18.61996654 36.56533479 29 47 C29.59039062 47.62519531 30.18078125 48.25039063 30.7890625 48.89453125 C40.14947777 58.02815232 53.7578283 62.62710351 65.96801758 66.56640625 C66.74040771 66.82808594 67.51279785 67.08976562 68.30859375 67.359375 C68.99751709 67.58077148 69.68644043 67.80216797 70.39624023 68.03027344 C72 69 72 69 72.73071289 71.10253906 C72.86401001 72.04178223 72.86401001 72.04178223 73 73 C66.85339946 75.60261464 60.69964755 78.12486038 54.4375 80.4375 C35.06102529 87.89709634 21.12790132 99.98277805 12.4675293 119.04760742 C9.21779749 126.53628672 6.58557597 134.26221403 4 142 C2.35 142 0.7 142 -1 142 C-1.21092285 141.39639648 -1.4218457 140.79279297 -1.63916016 140.17089844 C-10.68528366 114.42159627 -19.82547415 94.88588583 -45.4609375 82.5078125 C-50.7757072 80.2434625 -56.20718645 78.30175488 -61.67773438 76.44702148 C-62.86206055 76.03432007 -62.86206055 76.03432007 -64.0703125 75.61328125 C-64.77945801 75.37391846 -65.48860352 75.13455566 -66.21923828 74.88793945 C-68 74 -68 74 -70 71 C-68.58412458 68.16824916 -66.99533294 68.09050555 -64.0390625 67.046875 C-63.00910156 66.67433594 -61.97914063 66.30179687 -60.91796875 65.91796875 C-58.76227585 65.15337542 -56.6060455 64.39029527 -54.44921875 63.62890625 C-33.68311646 56.10793224 -19.42281434 44.49392345 -9.9609375 24.46875 C-7.04844377 18.02111153 -4.69095384 11.36218361 -2.34765625 4.69140625 C-1 1 -1 1 0 0 Z " fill="#AAF1E1" transform="translate(370,338)"/>
<path d="M0 0 C1.65 0 3.3 0 5 0 C5.24121582 0.66942627 5.48243164 1.33885254 5.73095703 2.02856445 C6.85319584 5.1265946 7.98901358 8.21948569 9.125 11.3125 C9.50398438 12.36501953 9.88296875 13.41753906 10.2734375 14.50195312 C17.58677032 34.30889617 28.72028212 49.47816584 48.1875 58.6875 C54.48821361 61.5760154 60.99964701 63.85949627 67.62963867 65.87182617 C69.7109375 66.54296875 69.7109375 66.54296875 73 68 C73.9765625 70.17578125 73.9765625 70.17578125 74 72 C68.87807003 74.37126387 63.71766028 76.49917924 58.43505859 78.47973633 C46.03468356 83.15890645 36.5484632 88.64541422 27 98 C26.37222656 98.59167969 25.74445313 99.18335938 25.09765625 99.79296875 C15.97385736 109.16503427 11.37390684 122.75469666 7.43359375 134.96801758 C7.17191406 135.74040771 6.91023438 136.51279785 6.640625 137.30859375 C6.41922852 137.99751709 6.19783203 138.68644043 5.96972656 139.39624023 C5 141 5 141 2.89746094 141.73071289 C1.95821777 141.86401001 1.95821777 141.86401001 1 142 C0.29008436 140.31316505 -0.41778729 138.62546995 -1.125 136.9375 C-1.58390625 135.84308594 -2.0428125 134.74867188 -2.515625 133.62109375 C-3.76955473 130.56216516 -4.96305724 127.48694772 -6.14208984 124.39868164 C-14.2201685 103.47156048 -26.26544336 90.21230291 -46.6953125 80.97460938 C-51.69328684 78.86105921 -56.82069112 77.05808685 -61.96850586 75.34545898 C-62.74073486 75.08063721 -63.51296387 74.81581543 -64.30859375 74.54296875 C-64.99751709 74.31633545 -65.68644043 74.08970215 -66.39624023 73.85620117 C-68 73 -68 73 -69 70 C-66.0517208 67.57661526 -63.34413376 66.23074037 -59.74609375 64.984375 C-58.73168213 64.62400146 -57.71727051 64.26362793 -56.67211914 63.89233398 C-55.60469482 63.51536377 -54.53727051 63.13839355 -53.4375 62.75 C-44.90631538 59.63574152 -37.15770639 56.70299268 -30 51 C-29.22140625 50.39800781 -28.4428125 49.79601562 -27.640625 49.17578125 C-12.26387145 36.45641967 -6.09009956 18.30832786 0 0 Z " fill="#AAF1E1" transform="translate(369,32)"/>
</svg>
